<svg width="142" height="26" viewBox="0 0 142 26" fill="none" xmlns="http://www.w3.org/2000/svg">
<path fill-rule="evenodd" clip-rule="evenodd" d="M0.5 0V24H24.5V0H0.5ZM3.91421 2L12.5 10.5858L21.0858 2H3.91421ZM22.5 3.41421L13.9142 12L22.5 20.5858V3.41421ZM21.0858 22L12.5 13.4142L3.91421 22H21.0858ZM2.5 20.5858L11.0858 12L2.5 3.41421V20.5858Z" fill="#4D5358"/>
<path d="M34.1367 18.293L37.5352 3.9375H39.4336L39.8672 6.32812L36.2461 21H34.207L34.1367 18.293ZM32.3906 3.9375L35.2031 18.293L34.9688 21H32.6953L28.9102 3.9375H32.3906ZM42.8555 18.2344L45.6328 3.9375H49.1133L45.3398 21H43.0664L42.8555 18.2344ZM40.5 3.9375L43.9219 18.3516L43.8281 21H41.7891L38.1445 6.31641L38.6133 3.9375H40.5ZM54.375 8.32031V21H50.9883V8.32031H54.375ZM50.7773 5.01562C50.7773 4.52344 50.9492 4.11719 51.293 3.79688C51.6367 3.47656 52.0977 3.31641 52.6758 3.31641C53.2461 3.31641 53.7031 3.47656 54.0469 3.79688C54.3984 4.11719 54.5742 4.52344 54.5742 5.01562C54.5742 5.50781 54.3984 5.91406 54.0469 6.23438C53.7031 6.55469 53.2461 6.71484 52.6758 6.71484C52.0977 6.71484 51.6367 6.55469 51.293 6.23438C50.9492 5.91406 50.7773 5.50781 50.7773 5.01562ZM60.5391 11.0859V21H57.1641V8.32031H60.3398L60.5391 11.0859ZM64.3594 8.23828L64.3008 11.3672C64.1367 11.3438 63.9375 11.3242 63.7031 11.3086C63.4766 11.2852 63.2695 11.2734 63.082 11.2734C62.6055 11.2734 62.1914 11.3359 61.8398 11.4609C61.4961 11.5781 61.207 11.7539 60.9727 11.9883C60.7461 12.2227 60.5742 12.5078 60.457 12.8438C60.3477 13.1797 60.2852 13.5625 60.2695 13.9922L59.5898 13.7812C59.5898 12.9609 59.6719 12.207 59.8359 11.5195C60 10.8242 60.2383 10.2188 60.5508 9.70312C60.8711 9.1875 61.2617 8.78906 61.7227 8.50781C62.1836 8.22656 62.7109 8.08594 63.3047 8.08594C63.4922 8.08594 63.6836 8.10156 63.8789 8.13281C64.0742 8.15625 64.2344 8.19141 64.3594 8.23828ZM71.5547 21.2344C70.5703 21.2344 69.6875 21.0781 68.9062 20.7656C68.125 20.4453 67.4609 20.0039 66.9141 19.4414C66.375 18.8789 65.9609 18.2266 65.6719 17.4844C65.3828 16.7344 65.2383 15.9375 65.2383 15.0938V14.625C65.2383 13.6641 65.375 12.7852 65.6484 11.9883C65.9219 11.1914 66.3125 10.5 66.8203 9.91406C67.3359 9.32812 67.9609 8.87891 68.6953 8.56641C69.4297 8.24609 70.2578 8.08594 71.1797 8.08594C72.0781 8.08594 72.875 8.23438 73.5703 8.53125C74.2656 8.82812 74.8477 9.25 75.3164 9.79688C75.793 10.3438 76.1523 11 76.3945 11.7656C76.6367 12.5234 76.7578 13.3672 76.7578 14.2969V15.7031H66.6797V13.4531H73.4414V13.1953C73.4414 12.7266 73.3555 12.3086 73.1836 11.9414C73.0195 11.5664 72.7695 11.2695 72.4336 11.0508C72.0977 10.832 71.668 10.7227 71.1445 10.7227C70.6992 10.7227 70.3164 10.8203 69.9961 11.0156C69.6758 11.2109 69.4141 11.4844 69.2109 11.8359C69.0156 12.1875 68.8672 12.6016 68.7656 13.0781C68.6719 13.5469 68.625 14.0625 68.625 14.625V15.0938C68.625 15.6016 68.6953 16.0703 68.8359 16.5C68.9844 16.9297 69.1914 17.3008 69.457 17.6133C69.7305 17.9258 70.0586 18.168 70.4414 18.3398C70.832 18.5117 71.2734 18.5977 71.7656 18.5977C72.375 18.5977 72.9414 18.4805 73.4648 18.2461C73.9961 18.0039 74.4531 17.6406 74.8359 17.1562L76.4766 18.9375C76.2109 19.3203 75.8477 19.6875 75.3867 20.0391C74.9336 20.3906 74.3867 20.6797 73.7461 20.9062C73.1055 21.125 72.375 21.2344 71.5547 21.2344ZM82.9805 21H79.582V7.19531C79.582 6.23438 79.7695 5.42578 80.1445 4.76953C80.5273 4.10547 81.0625 3.60547 81.75 3.26953C82.4453 2.92578 83.2695 2.75391 84.2227 2.75391C84.5352 2.75391 84.8359 2.77734 85.125 2.82422C85.4141 2.86328 85.6953 2.91406 85.9688 2.97656L85.9336 5.51953C85.7852 5.48047 85.6289 5.45312 85.4648 5.4375C85.3008 5.42188 85.1094 5.41406 84.8906 5.41406C84.4844 5.41406 84.1367 5.48438 83.8477 5.625C83.5664 5.75781 83.3516 5.95703 83.2031 6.22266C83.0547 6.48828 82.9805 6.8125 82.9805 7.19531V21ZM85.5117 8.32031V10.7109H77.6953V8.32031H85.5117ZM90.6562 11.0859V21H87.2812V8.32031H90.457L90.6562 11.0859ZM94.4766 8.23828L94.418 11.3672C94.2539 11.3438 94.0547 11.3242 93.8203 11.3086C93.5938 11.2852 93.3867 11.2734 93.1992 11.2734C92.7227 11.2734 92.3086 11.3359 91.957 11.4609C91.6133 11.5781 91.3242 11.7539 91.0898 11.9883C90.8633 12.2227 90.6914 12.5078 90.5742 12.8438C90.4648 13.1797 90.4023 13.5625 90.3867 13.9922L89.707 13.7812C89.707 12.9609 89.7891 12.207 89.9531 11.5195C90.1172 10.8242 90.3555 10.2188 90.668 9.70312C90.9883 9.1875 91.3789 8.78906 91.8398 8.50781C92.3008 8.22656 92.8281 8.08594 93.4219 8.08594C93.6094 8.08594 93.8008 8.10156 93.9961 8.13281C94.1914 8.15625 94.3516 8.19141 94.4766 8.23828ZM102.516 18.1406V12.4922C102.516 12.0859 102.449 11.7383 102.316 11.4492C102.184 11.1523 101.977 10.9219 101.695 10.7578C101.422 10.5938 101.066 10.5117 100.629 10.5117C100.254 10.5117 99.9297 10.5781 99.6562 10.7109C99.3828 10.8359 99.1719 11.0195 99.0234 11.2617C98.875 11.4961 98.8008 11.7734 98.8008 12.0938H95.4258C95.4258 11.5547 95.5508 11.043 95.8008 10.5586C96.0508 10.0742 96.4141 9.64844 96.8906 9.28125C97.3672 8.90625 97.9336 8.61328 98.5898 8.40234C99.2539 8.19141 99.9961 8.08594 100.816 8.08594C101.801 8.08594 102.676 8.25 103.441 8.57812C104.207 8.90625 104.809 9.39844 105.246 10.0547C105.691 10.7109 105.914 11.5312 105.914 12.5156V17.9414C105.914 18.6367 105.957 19.207 106.043 19.6523C106.129 20.0898 106.254 20.4727 106.418 20.8008V21H103.008C102.844 20.6562 102.719 20.2266 102.633 19.7109C102.555 19.1875 102.516 18.6641 102.516 18.1406ZM102.961 13.2773L102.984 15.1875H101.098C100.652 15.1875 100.266 15.2383 99.9375 15.3398C99.6094 15.4414 99.3398 15.5859 99.1289 15.7734C98.918 15.9531 98.7617 16.1641 98.6602 16.4062C98.5664 16.6484 98.5195 16.9141 98.5195 17.2031C98.5195 17.4922 98.5859 17.7539 98.7188 17.9883C98.8516 18.2148 99.043 18.3945 99.293 18.5273C99.543 18.6523 99.8359 18.7148 100.172 18.7148C100.68 18.7148 101.121 18.6133 101.496 18.4102C101.871 18.207 102.16 17.957 102.363 17.6602C102.574 17.3633 102.684 17.082 102.691 16.8164L103.582 18.2461C103.457 18.5664 103.285 18.8984 103.066 19.2422C102.855 19.5859 102.586 19.9102 102.258 20.2148C101.93 20.5117 101.535 20.7578 101.074 20.9531C100.613 21.1406 100.066 21.2344 99.4336 21.2344C98.6289 21.2344 97.8984 21.0742 97.2422 20.7539C96.5938 20.4258 96.0781 19.9766 95.6953 19.4062C95.3203 18.8281 95.1328 18.1719 95.1328 17.4375C95.1328 16.7734 95.2578 16.1836 95.5078 15.668C95.7578 15.1523 96.125 14.7188 96.6094 14.3672C97.1016 14.0078 97.7148 13.7383 98.4492 13.5586C99.1836 13.3711 100.035 13.2773 101.004 13.2773H102.961ZM111.891 10.9453V21H108.504V8.32031H111.68L111.891 10.9453ZM111.422 14.2148H110.484C110.484 13.332 110.59 12.5195 110.801 11.7773C111.02 11.0273 111.336 10.3789 111.75 9.83203C112.172 9.27734 112.691 8.84766 113.309 8.54297C113.926 8.23828 114.641 8.08594 115.453 8.08594C116.016 8.08594 116.531 8.17188 117 8.34375C117.469 8.50781 117.871 8.76953 118.207 9.12891C118.551 9.48047 118.816 9.94141 119.004 10.5117C119.191 11.0742 119.285 11.75 119.285 12.5391V21H115.91V12.9141C115.91 12.3359 115.832 11.8906 115.676 11.5781C115.52 11.2656 115.297 11.0469 115.008 10.9219C114.727 10.7969 114.387 10.7344 113.988 10.7344C113.551 10.7344 113.168 10.8242 112.84 11.0039C112.52 11.1836 112.254 11.4336 112.043 11.7539C111.832 12.0664 111.676 12.4336 111.574 12.8555C111.473 13.2773 111.422 13.7305 111.422 14.2148ZM118.969 13.8281L117.762 13.9805C117.762 13.1523 117.863 12.3828 118.066 11.6719C118.277 10.9609 118.586 10.3359 118.992 9.79688C119.406 9.25781 119.918 8.83984 120.527 8.54297C121.137 8.23828 121.84 8.08594 122.637 8.08594C123.246 8.08594 123.801 8.17578 124.301 8.35547C124.801 8.52734 125.227 8.80469 125.578 9.1875C125.938 9.5625 126.211 10.0547 126.398 10.6641C126.594 11.2734 126.691 12.0195 126.691 12.9023V21H123.305V12.9023C123.305 12.3164 123.227 11.8711 123.07 11.5664C122.922 11.2539 122.703 11.0391 122.414 10.9219C122.133 10.7969 121.797 10.7344 121.406 10.7344C121 10.7344 120.645 10.8164 120.34 10.9805C120.035 11.1367 119.781 11.3555 119.578 11.6367C119.375 11.918 119.223 12.2461 119.121 12.6211C119.02 12.9883 118.969 13.3906 118.969 13.8281ZM135.141 21.2344C134.156 21.2344 133.273 21.0781 132.492 20.7656C131.711 20.4453 131.047 20.0039 130.5 19.4414C129.961 18.8789 129.547 18.2266 129.258 17.4844C128.969 16.7344 128.824 15.9375 128.824 15.0938V14.625C128.824 13.6641 128.961 12.7852 129.234 11.9883C129.508 11.1914 129.898 10.5 130.406 9.91406C130.922 9.32812 131.547 8.87891 132.281 8.56641C133.016 8.24609 133.844 8.08594 134.766 8.08594C135.664 8.08594 136.461 8.23438 137.156 8.53125C137.852 8.82812 138.434 9.25 138.902 9.79688C139.379 10.3438 139.738 11 139.98 11.7656C140.223 12.5234 140.344 13.3672 140.344 14.2969V15.7031H130.266V13.4531H137.027V13.1953C137.027 12.7266 136.941 12.3086 136.77 11.9414C136.605 11.5664 136.355 11.2695 136.02 11.0508C135.684 10.832 135.254 10.7227 134.73 10.7227C134.285 10.7227 133.902 10.8203 133.582 11.0156C133.262 11.2109 133 11.4844 132.797 11.8359C132.602 12.1875 132.453 12.6016 132.352 13.0781C132.258 13.5469 132.211 14.0625 132.211 14.625V15.0938C132.211 15.6016 132.281 16.0703 132.422 16.5C132.57 16.9297 132.777 17.3008 133.043 17.6133C133.316 17.9258 133.645 18.168 134.027 18.3398C134.418 18.5117 134.859 18.5977 135.352 18.5977C135.961 18.5977 136.527 18.4805 137.051 18.2461C137.582 18.0039 138.039 17.6406 138.422 17.1562L140.062 18.9375C139.797 19.3203 139.434 19.6875 138.973 20.0391C138.52 20.3906 137.973 20.6797 137.332 20.9062C136.691 21.125 135.961 21.2344 135.141 21.2344Z" fill="#697077"/>
</svg>
