<svg xmlns="http://www.w3.org/2000/svg" width="12" height="12" viewBox="0 0 12 12" fill="none">
<g clip-path="url(#clip0_1289_5522)">
<path d="M11.395 11.0398V11.0393H11.3978V6.99776C11.3978 5.0206 10.967 3.49756 8.62755 3.49756C7.50292 3.49756 6.74821 4.10733 6.4401 4.68542H6.40757V3.68214H4.18945V11.0393H6.49912V7.39632C6.49912 6.43713 6.68315 5.50961 7.88539 5.50961C9.06997 5.50961 9.08763 6.60426 9.08763 7.45785V11.0398H11.395Z" fill="#1C5AF9"/>
<path d="M0.427734 3.68262H2.74019V11.0398H0.427734V3.68262Z" fill="#1C5AF9"/>
<path d="M1.58347 0.0198975C0.844097 0.0198975 0.244141 0.612678 0.244141 1.34321C0.244141 2.07374 0.844097 2.67891 1.58347 2.67891C2.32284 2.67891 2.9228 2.07374 2.9228 1.34321C2.92234 0.612678 2.32238 0.0198975 1.58347 0.0198975V0.0198975Z" fill="#1C5AF9"/>
</g>
<defs>
<clipPath id="clip0_1289_5522">
<rect width="11.1533" height="11.0199" fill="white" transform="translate(0.244141 0.0198975)"/>
</clipPath>
</defs>
</svg>