<svg width="133" height="42" viewBox="0 0 133 42" fill="none" xmlns="http://www.w3.org/2000/svg">
<g id="logos:google" clip-path="url(#clip0_1150_5847)">
<path id="Vector" d="M128.054 25.3599L131.721 27.6988C130.531 29.3759 127.684 32.2534 122.763 32.2534C116.653 32.2534 112.102 27.7297 112.102 21.9748C112.102 15.8509 116.701 11.6964 122.249 11.6964C127.829 11.6964 130.563 15.9431 131.447 18.2357L131.93 19.4053L117.553 25.0984C118.647 27.1603 120.352 28.2066 122.763 28.2066C125.176 28.2066 126.848 27.0679 128.054 25.3599ZM116.782 21.652L126.382 17.8358C125.851 16.5588 124.275 15.6511 122.393 15.6511C119.998 15.6511 116.669 17.6822 116.782 21.652Z" fill="#FF302F"/>
<path id="Vector_2" d="M105.171 1.2179H109.802V31.3148H105.171V1.21765V1.2179Z" fill="#20B15A"/>
<path id="Vector_3" d="M97.8705 12.4965H102.341V30.7762C102.341 38.3618 97.6615 41.4854 92.1296 41.4854C86.9196 41.4854 83.784 38.1311 82.6099 35.4077L86.7105 33.7765C87.45 35.4536 89.2351 37.4388 92.1296 37.4388C95.6833 37.4388 97.8705 35.3306 97.8705 31.3917V29.9147H97.7097C96.6483 31.1455 94.6221 32.2533 92.0493 32.2533C86.6782 32.2533 81.7573 27.7756 81.7573 22.0057C81.7573 16.2047 86.6782 11.6812 92.0493 11.6812C94.6061 11.6812 96.6483 12.7736 97.7097 13.9738H97.8705V12.4967V12.4965ZM98.1919 22.0057C98.1919 18.3743 95.6673 15.7277 92.4512 15.7277C89.2028 15.7277 86.4691 18.3743 86.4691 22.0057C86.4691 25.5907 89.2028 28.1911 92.4512 28.1911C95.6676 28.2067 98.1922 25.5907 98.1922 22.0057H98.1919Z" fill="#3686F7"/>
<path id="Vector_4" d="M56.3339 21.9286C56.3339 27.8526 51.5098 32.207 45.592 32.207C39.6744 32.207 34.8501 27.8373 34.8501 21.9286C34.8501 15.9739 39.6744 11.6349 45.592 11.6349C51.5098 11.6349 56.3339 15.9739 56.3339 21.9286ZM51.6383 21.9286C51.6383 18.236 48.8401 15.6968 45.592 15.6968C42.3438 15.6968 39.5456 18.236 39.5456 21.9286C39.5456 25.5906 42.3438 28.1604 45.592 28.1604C48.8404 28.1604 51.6383 25.5906 51.6383 21.9286Z" fill="#FF302F"/>
<path id="Vector_5" d="M79.7958 21.9748C79.7958 27.8988 74.9715 32.2532 69.0539 32.2532C63.1361 32.2532 58.312 27.8986 58.312 21.9748C58.312 16.0201 63.1361 11.6964 69.0539 11.6964C74.9715 11.6964 79.7958 16.0048 79.7958 21.9748ZM75.084 21.9748C75.084 18.2822 72.286 15.743 69.0376 15.743C65.7895 15.743 62.9913 18.2822 62.9913 21.9748C62.9913 25.6368 65.7895 28.2066 69.0376 28.2066C72.302 28.2066 75.084 25.6215 75.084 21.9748Z" fill="#FFBA40"/>
<path id="Vector_6" d="M17.1931 27.745C10.4552 27.745 5.18096 22.5441 5.18096 16.097C5.18096 9.65002 10.4552 4.4492 17.1931 4.4492C20.8275 4.4492 23.4806 5.81856 25.4424 7.57275L28.6748 4.48007C25.9412 1.97204 22.2908 0.0637207 17.1931 0.0637207C7.96291 0.0639677 0.195801 7.26524 0.195801 16.097C0.195801 24.9292 7.96291 32.1302 17.1931 32.1302C22.1783 32.1302 25.9412 30.5608 28.8839 27.6373C31.907 24.7444 32.8396 20.6823 32.8396 17.3895C32.8396 16.3585 32.7111 15.2969 32.5663 14.5122H17.1931V18.7897H28.1441C27.8225 21.4672 26.9381 23.2982 25.6355 24.5443C24.0596 26.0678 21.5673 27.745 17.1931 27.745Z" fill="#3686F7"/>
</g>
<defs>
<clipPath id="clip0_1150_5847">
<rect width="132.174" height="41.4959" fill="white"/>
</clipPath>
</defs>
</svg>
