<svg xmlns="http://www.w3.org/2000/svg" width="14" height="14" viewBox="0 0 14 14" fill="none">
<g clip-path="url(#clip0_1289_5515)">
<path d="M13.7143 2.49355C13.2241 2.70599 12.7018 2.84681 12.1573 2.91518C12.7175 2.58471 13.1451 2.0654 13.3461 1.43945C12.8238 1.74714 12.2471 1.96447 11.6325 2.08575C11.1366 1.56399 10.4297 1.24084 9.65865 1.24084C8.1626 1.24084 6.95817 2.44064 6.95817 3.91149C6.95817 4.12312 6.9763 4.32661 7.02078 4.52034C4.77423 4.41208 2.78635 3.34822 1.45094 1.7276C1.2178 2.12726 1.08104 2.58471 1.08104 3.07717C1.08104 4.00184 1.56298 4.82151 2.28135 5.29605C1.8472 5.28791 1.42128 5.16338 1.06045 4.96721C1.06045 4.97535 1.06045 4.98593 1.06045 4.99651C1.06045 6.29398 1.99713 7.37168 3.22545 7.61994C3.00549 7.67936 2.76575 7.70785 2.51696 7.70785C2.34396 7.70785 2.16931 7.69808 2.00537 7.66227C2.35549 8.71962 3.34902 9.49696 4.53038 9.52219C3.61099 10.2328 2.44364 10.6609 1.1799 10.6609C0.958294 10.6609 0.745749 10.6512 0.533203 10.6243C1.73021 11.387 3.14883 11.8225 4.67866 11.8225C9.65124 11.8225 12.3698 7.75262 12.3698 4.22487C12.3698 4.10684 12.3657 3.99288 12.36 3.87974C12.8963 3.50369 13.3469 3.03402 13.7143 2.49355Z" fill="#1E70F6"/>
</g>
<defs>
<clipPath id="clip0_1289_5515">
<rect width="13.1811" height="13.0236" fill="white" transform="translate(0.533203 0.0198975)"/>
</clipPath>
</defs>
</svg>