<?xml version="1.0" standalone="no"?>
<svg xmlns:xlink="http://www.w3.org/1999/xlink" id="wave" style="transform:rotate(0deg); transition: 0.3s" viewBox="0 0 1440 100" version="1.1" xmlns="http://www.w3.org/2000/svg"><defs><linearGradient id="sw-gradient-0" x1="0" x2="0" y1="1" y2="0"><stop stop-color="rgba(245, 245, 250, 1)" offset="0%"/><stop stop-color="rgba(245, 245, 250, 1)" offset="100%"/></linearGradient></defs><path style="transform:translate(0, 0px); opacity:1" fill="url(#sw-gradient-0)" d="M0,90L48,86.7C96,83,192,77,288,65C384,53,480,37,576,40C672,43,768,67,864,68.3C960,70,1056,50,1152,45C1248,40,1344,50,1440,53.3C1536,57,1632,53,1728,46.7C1824,40,1920,30,2016,35C2112,40,2208,60,2304,71.7C2400,83,2496,87,2592,80C2688,73,2784,57,2880,46.7C2976,37,3072,33,3168,41.7C3264,50,3360,70,3456,80C3552,90,3648,90,3744,86.7C3840,83,3936,77,4032,68.3C4128,60,4224,50,4320,38.3C4416,27,4512,13,4608,6.7C4704,0,4800,0,4896,8.3C4992,17,5088,33,5184,40C5280,47,5376,43,5472,50C5568,57,5664,73,5760,76.7C5856,80,5952,70,6048,61.7C6144,53,6240,47,6336,43.3C6432,40,6528,40,6624,41.7C6720,43,6816,47,6864,48.3L6912,50L6912,100L6864,100C6816,100,6720,100,6624,100C6528,100,6432,100,6336,100C6240,100,6144,100,6048,100C5952,100,5856,100,5760,100C5664,100,5568,100,5472,100C5376,100,5280,100,5184,100C5088,100,4992,100,4896,100C4800,100,4704,100,4608,100C4512,100,4416,100,4320,100C4224,100,4128,100,4032,100C3936,100,3840,100,3744,100C3648,100,3552,100,3456,100C3360,100,3264,100,3168,100C3072,100,2976,100,2880,100C2784,100,2688,100,2592,100C2496,100,2400,100,2304,100C2208,100,2112,100,2016,100C1920,100,1824,100,1728,100C1632,100,1536,100,1440,100C1344,100,1248,100,1152,100C1056,100,960,100,864,100C768,100,672,100,576,100C480,100,384,100,288,100C192,100,96,100,48,100L0,100Z"/></svg>